<?xml version="1.0" encoding="UTF-8"?>
<svg version="1.1" xmlns="http://www.w3.org/2000/svg" width="800" height="800">

<path d="M0 0 C1.41913199 -0.01989437 2.83870749 -0.01782779 4.2578125 0.00390625 C4.96550781 -0.01994141 5.67320312 -0.04378906 6.40234375 -0.06835938 C10.16139351 -0.05785924 12.03773698 0.26936615 14.91186523 2.7434082 C17.34102119 5.51866068 19.05109608 8.12512045 20.80078125 11.36328125 C21.40986328 12.47775635 22.01894531 13.59223145 22.64648438 14.74047852 C22.96029053 15.32386993 23.27409668 15.90726135 23.59741211 16.5083313 C25.25177751 19.58286665 26.93494587 22.6416308 28.61328125 25.703125 C28.94294891 26.3064415 29.27261658 26.909758 29.61227417 27.53135681 C32.12037834 32.11462658 34.70833154 36.64113063 37.3828125 41.12890625 C46.72576614 56.84196582 55.77567589 72.72893584 64.83251953 88.6081543 C68.74390621 95.46118916 72.68545954 102.29653649 76.6328125 109.12890625 C81.96830351 118.3658677 87.28048645 127.61574814 92.5703125 136.87890625 C92.90783539 137.46993134 93.24535828 138.06095642 93.59310913 138.66989136 C96.40027733 143.58599468 99.20584686 148.50300969 102.01074219 153.42041016 C113.52249566 173.60109808 125.11378906 193.73310785 136.89001465 213.76062012 C142.61569741 223.50244636 148.25119042 233.29296788 153.84295654 243.11218262 C158.04198932 250.48516554 162.27345944 257.8345736 166.59643555 265.13549805 C170.98202307 272.55300714 175.27080882 280.02613414 179.57006836 287.49389648 C183.28061524 293.93485458 187.01071578 300.36365612 190.76611328 306.77856445 C196.14705501 315.970818 201.48806331 325.18489525 206.7578125 334.44140625 C207.32387207 335.42906982 207.88993164 336.4167334 208.47314453 337.43432617 C208.98731934 338.34158447 209.50149414 339.24884277 210.03125 340.18359375 C210.48677246 340.98394043 210.94229492 341.78428711 211.41162109 342.60888672 C212.3828125 344.56640625 212.3828125 344.56640625 212.3828125 346.56640625 C174.71698701 346.58930319 137.05116256 346.60692004 99.38533152 346.61747158 C94.93690069 346.61872226 90.48846987 346.62001659 86.04003906 346.62133789 C85.15444958 346.6216002 84.2688601 346.62186251 83.35643457 346.62213277 C69.02366567 346.62648215 54.6909008 346.63436569 40.35813428 346.64355905 C25.64758482 346.65291591 10.93703745 346.65846617 -3.77351487 346.66049474 C-12.84813778 346.66186574 -21.92274935 346.66619346 -30.99736877 346.67432272 C-37.22311434 346.67961524 -43.44885406 346.68120484 -49.67460172 346.67990763 C-53.26462073 346.67926817 -56.85461992 346.68023732 -60.44463539 346.68561172 C-64.34288878 346.69140474 -68.24111656 346.68938787 -72.13937378 346.68666077 C-73.82909862 346.69103003 -73.82909862 346.69103003 -75.55295932 346.69548756 C-81.96892938 346.68337304 -88.24775733 346.34772134 -94.6171875 345.56640625 C-93.86803167 342.34772383 -92.80087843 339.79901804 -91.2109375 336.890625 C-90.47363403 335.53759277 -90.47363403 335.53759277 -89.72143555 334.15722656 C-89.19203369 333.19913086 -88.66263184 332.24103516 -88.1171875 331.25390625 C-87.5703833 330.25842773 -87.0235791 329.26294922 -86.46020508 328.23730469 C-83.17091825 322.28200489 -79.79630194 316.39990153 -76.25268555 310.59228516 C-72.54198026 304.49711569 -68.98711122 298.31449511 -65.4296875 292.12890625 C-60.45840564 283.4868598 -55.46345582 274.85970997 -50.4296875 266.25390625 C-46.118772 258.88049332 -41.84342649 251.48867699 -37.6171875 244.06640625 C-33.39094693 236.64413274 -29.11537658 229.25245336 -24.8046875 221.87890625 C-19.84379763 213.39230493 -14.9050888 204.89338708 -9.9921875 196.37890625 C-9.36932861 195.30068604 -8.74646973 194.22246582 -8.10473633 193.11157227 C-5.10475807 187.91105943 -2.12282926 182.70166284 0.8203125 177.46875 C1.62927979 176.03535278 1.62927979 176.03535278 2.45458984 174.57299805 C3.45501148 172.79749338 4.45052376 171.019209 5.43994141 169.23754883 C8.06262359 164.5881628 10.82358863 160.54965318 14.3828125 156.56640625 C17.05821739 158.98307857 18.7063172 161.58667613 20.5 164.703125 C21.10110596 165.7444458 21.70221191 166.7857666 22.3215332 167.85864258 C22.96050537 168.97907959 23.59947754 170.0995166 24.2578125 171.25390625 C24.9233897 172.41497575 25.58899882 173.57602696 26.25463867 174.73706055 C30.82628724 182.73409601 35.2969577 190.78515584 39.6953125 198.87890625 C40.23978027 199.87946045 40.78424805 200.88001465 41.34521484 201.91088867 C42.1005249 203.31238159 42.1005249 203.31238159 42.87109375 204.7421875 C43.30977783 205.55598877 43.74846191 206.36979004 44.20043945 207.20825195 C44.78571411 208.37553833 44.78571411 208.37553833 45.3828125 209.56640625 C45.81360107 210.38093262 46.24438965 211.19545898 46.68823242 212.03466797 C47.6412624 215.50845385 46.74342632 216.78760302 45.0078125 219.8984375 C44.44167236 220.93218506 43.87553223 221.96593262 43.29223633 223.03100586 C42.66212646 224.13581299 42.0320166 225.24062012 41.3828125 226.37890625 C40.42507935 228.10475952 40.42507935 228.10475952 39.44799805 229.86547852 C37.45482079 233.44894989 35.42409137 237.01016345 33.3828125 240.56640625 C32.76615723 241.64180664 32.14950195 242.71720703 31.51416016 243.82519531 C27.51641504 250.76619213 23.45650623 257.66979808 19.3828125 264.56640625 C17.27155716 268.14563414 15.16819303 271.72932601 13.0703125 275.31640625 C12.60794189 276.09685303 12.14557129 276.8772998 11.66918945 277.68139648 C11.24855225 278.40141846 10.82791504 279.12144043 10.39453125 279.86328125 C10.02803467 280.48557617 9.66153809 281.10787109 9.28393555 281.74902344 C8.15954531 283.85407204 8.15954531 283.85407204 7.3828125 287.56640625 C41.0428125 287.56640625 74.7028125 287.56640625 109.3828125 287.56640625 C103.4544719 275.47300558 103.4544719 275.47300558 96.8828125 263.81640625 C92.32339918 256.20700371 87.9006965 248.52274386 83.5078125 240.81640625 C82.8108898 239.59463525 82.1139497 238.37287418 81.41699219 237.15112305 C80.04674706 234.74863061 78.67701699 232.34584544 77.30761719 229.94287109 C74.58643104 225.1694053 71.85983599 220.39903882 69.1328125 215.62890625 C66.25467641 210.59349232 63.37739248 205.55760038 60.50390625 200.51953125 C53.14523167 187.6218443 45.73298767 174.75551418 38.30615234 161.89697266 C35.16322456 156.45449731 32.02314069 151.01038184 28.8828125 145.56640625 C27.65235787 143.4335856 26.42188906 141.30077314 25.19140625 139.16796875 C18.921875 128.30078125 12.65234375 117.43359375 6.3828125 106.56640625 C5.3928125 106.56640625 4.4028125 106.56640625 3.3828125 106.56640625 C3.0017334 107.22833984 2.6206543 107.89027344 2.22802734 108.57226562 C-7.57246227 125.59062405 -17.43673272 142.57048418 -27.34667969 159.52539062 C-33.90614941 170.75011208 -40.44331782 181.98675975 -46.9296875 193.25390625 C-54.06825255 205.65079763 -61.30015364 217.99160644 -68.54360962 230.32733154 C-73.6870829 239.08915141 -78.79980089 247.86893497 -83.91552734 256.64697266 C-86.2298623 260.61753469 -88.54561438 264.58726919 -90.86157227 268.55688477 C-92.02770838 270.55590575 -93.19356336 272.55509078 -94.35913086 274.55444336 C-97.31962489 279.6321241 -100.28465035 284.70706883 -103.2578125 289.77734375 C-108.46254258 298.66127957 -113.65306582 307.54529642 -118.6171875 316.56640625 C-124.73993171 327.68848999 -131.19106847 338.61778767 -137.6171875 349.56640625 C-139.01202701 351.94513183 -140.40640464 354.32412805 -141.80078125 356.703125 C-143.96429301 360.39410786 -146.12799231 364.08498025 -148.29248047 367.77539062 C-155.08703384 379.36094573 -161.8548179 390.96203921 -168.6171875 402.56640625 C-170.8876016 406.46248413 -173.15837971 410.35834929 -175.4296875 414.25390625 C-176.00041992 415.23286865 -176.57115234 416.21183105 -177.15917969 417.22045898 C-180.34855226 422.68789171 -183.54493631 428.15113109 -186.75 433.609375 C-195.49680363 448.50576064 -204.21061255 463.41963141 -212.80322266 478.40576172 C-214.04252223 480.56511197 -215.28450693 482.72292281 -216.52880859 484.87939453 C-218.37716724 488.08393974 -220.21698185 491.2932429 -222.0546875 494.50390625 C-222.61704102 495.47569824 -223.17939453 496.44749023 -223.75878906 497.44873047 C-224.26764648 498.34221191 -224.77650391 499.23569336 -225.30078125 500.15625 C-225.74993896 500.93863037 -226.19909668 501.72101074 -226.66186523 502.52709961 C-227.82929472 504.6438572 -227.82929472 504.6438572 -227.6171875 507.56640625 C-203.5271875 507.56640625 -179.4371875 507.56640625 -154.6171875 507.56640625 C-150.6571875 500.63640625 -146.6971875 493.70640625 -142.6171875 486.56640625 C-137.28385417 477.23307292 -131.95052083 467.89973958 -126.6171875 458.56640625 C-103.8471875 458.56640625 -81.0771875 458.56640625 -57.6171875 458.56640625 C-59.11020802 462.29895754 -60.56863839 465.39603066 -62.56640625 468.828125 C-63.15977783 469.85172119 -63.75314941 470.87531738 -64.36450195 471.92993164 C-65.3248938 473.57529907 -65.3248938 473.57529907 -66.3046875 475.25390625 C-66.97584981 476.40922333 -67.64666091 477.5647445 -68.31713867 478.72045898 C-69.71370435 481.12722434 -71.11178743 483.5330992 -72.51074219 485.93847656 C-75.19532026 490.55788011 -77.85940517 495.18900202 -80.5246582 499.81958008 C-85.56202887 508.57026051 -90.61926876 517.30753167 -95.75976562 525.99804688 C-100.35774351 533.78800941 -104.85432972 541.63706395 -109.35351562 549.484375 C-109.96259766 550.54398438 -110.57167969 551.60359375 -111.19921875 552.6953125 C-111.73780518 553.6344751 -112.2763916 554.5736377 -112.83129883 555.54125977 C-113.42064209 556.53955811 -114.00998535 557.53785645 -114.6171875 558.56640625 C-114.93576947 559.2302352 -115.25435145 559.89406415 -115.58258742 560.57800913 C-118.4786777 566.11236567 -118.4786777 566.11236567 -121.46153128 567.3019352 C-123.75119238 567.57770786 -125.92332067 567.59506327 -128.22883606 567.52844238 C-129.09473773 567.53527778 -129.9606394 567.54211318 -130.85278052 567.54915571 C-133.75451937 567.56233483 -136.65255745 567.51834473 -139.55395508 567.47460938 C-141.633483 567.47235279 -143.71301729 567.47361944 -145.7925415 567.47814941 C-151.43931685 567.48044713 -157.0847359 567.43337672 -162.73119569 567.37755775 C-168.63149297 567.32758562 -174.53182051 567.32285094 -180.43229675 567.31335449 C-191.6061682 567.28847819 -202.77941432 567.22281332 -213.95301026 567.14255857 C-226.67347292 567.05317451 -239.39396526 567.00916219 -252.11466372 566.96899509 C-278.28251849 566.88534872 -304.44981798 566.74461284 -330.6171875 566.56640625 C-331.6171875 563.56640625 -331.6171875 563.56640625 -330.5 561.06811523 C-329.62988281 559.58033569 -329.62988281 559.58033569 -328.7421875 558.0625 C-328.09427246 556.94262695 -327.44635742 555.82275391 -326.77880859 554.66894531 C-326.05842692 553.44717205 -325.33788224 552.22549487 -324.6171875 551.00390625 C-323.88134447 549.73982763 -323.14649379 548.47517087 -322.41259766 547.20996094 C-320.8975518 544.60106558 -319.37719468 541.99538037 -317.85253906 539.39208984 C-315.15553842 534.78325276 -312.49594721 530.15333579 -309.83569336 525.52319336 C-301.588834 511.17774273 -293.23750008 496.89308447 -284.88769531 482.60742188 C-278.26696908 471.27787681 -271.66791112 459.93659685 -265.1171875 448.56640625 C-252.04157183 425.87364752 -238.77487915 403.29242752 -225.52355957 380.70202637 C-216.10259165 364.64123855 -206.69436559 348.57322266 -197.31884766 332.48583984 C-194.41966724 327.51189445 -191.51830058 322.53922455 -188.6171875 317.56640625 C-187.45051072 315.56641215 -186.28384404 313.56641216 -185.1171875 311.56640625 C-136.1171875 227.56640625 -136.1171875 227.56640625 -134.36743164 224.56689453 C-133.19987022 222.56531414 -132.03238986 220.56368648 -130.86499023 218.56201172 C-127.96267334 213.58580233 -125.05898834 208.6104017 -122.15234375 203.63671875 C-116.14941725 193.36108127 -110.17522199 183.07007072 -104.2421875 172.75390625 C-99.12432538 163.85743564 -93.93061242 155.00993911 -88.6796875 146.19140625 C-82.4972592 135.80462586 -76.45652732 125.34624236 -70.47900391 114.84082031 C-66.21469326 107.34836838 -61.90807533 99.882469 -57.5546875 92.44140625 C-52.73709654 84.20620219 -47.94461873 75.95720405 -43.1796875 67.69140625 C-42.55771484 66.61246094 -41.93574219 65.53351563 -41.29492188 64.421875 C-39.40189624 61.13697633 -37.50943152 57.85175522 -35.6171875 54.56640625 C-30.62341866 45.89613269 -25.62567414 37.22818787 -20.6171875 28.56640625 C-19.9670166 27.44169922 -19.3168457 26.31699219 -18.64697266 25.15820312 C-16.72344399 21.83414815 -14.79598871 18.51240402 -12.8671875 15.19140625 C-11.99018188 13.67522705 -11.99018188 13.67522705 -11.09545898 12.12841797 C-10.55091064 11.19271973 -10.0063623 10.25702148 -9.4453125 9.29296875 C-8.7322998 8.06441162 -8.7322998 8.06441162 -8.00488281 6.81103516 C-4.20076472 0.65778713 -4.20076472 0.65778713 0 0 Z " fill="currentColor" transform="translate(341.6171875,116.43359375)"/>
<path d="M0 0 C22.11 0 44.22 0 67 0 C71.62 8.25 76.24 16.5 81 25 C86.20530347 33.9631419 86.20530347 33.9631419 91.4375 42.91015625 C95.1321331 49.21570419 98.78852681 55.54294436 102.4375 61.875 C103.06003662 62.95515381 103.68257324 64.03530762 104.32397461 65.14819336 C105.58576826 67.33796334 106.84740534 69.52782355 108.10888672 71.71777344 C111.86241194 78.23241236 115.62098914 84.74413825 119.37915039 91.25610352 C122.48238203 96.63382853 125.58346532 102.01276707 128.6796875 107.39453125 C135.59398571 119.4066595 142.55891915 131.38717888 149.57943726 143.33740234 C155.28206293 153.04586858 160.93014036 162.78448231 166.546875 172.54296875 C170.67346504 179.70974296 174.8268746 186.86023113 179 194 C183.86106929 202.31749453 188.6914112 210.65205682 193.5 219 C200.04892296 230.36746349 206.64679895 241.7056368 213.26611328 253.03222656 C216.76503227 259.02108311 220.25817064 265.01331349 223.75244141 271.00488281 C226.65471704 275.980906 229.5582908 280.95616135 232.46484375 285.9296875 C238.59034933 296.41491912 244.68889236 306.91489208 250.75 317.4375 C255.21133669 325.1822627 259.69234244 332.91377277 264.23461914 340.61132812 C267.73512169 346.54394696 271.21513745 352.48836747 274.6875 358.4375 C275.56668091 359.94364868 275.56668091 359.94364868 276.46362305 361.48022461 C280.30542781 368.0705532 284.11934281 374.67646006 287.92138672 381.28979492 C292.79973571 389.77417169 297.69088715 398.22605959 302.875 406.52734375 C311.74607666 420.88563896 319.96829733 435.66671327 328.39501953 450.28808594 C336.79945611 464.86503948 345.26021864 479.40742794 353.86328125 493.86816406 C365.25613158 513.02031975 376.31606892 532.35649909 387.203125 551.80078125 C388.15436751 553.4944065 389.11623325 555.1838393 390.15429688 556.82568359 C393.08111433 561.54486405 393.08111433 561.54486405 392.60644531 564.20825195 C392.40631836 564.79952881 392.20619141 565.39080566 392 566 C364.8624468 566.56141473 337.72576711 566.98422598 310.58357048 567.24349213 C297.97967961 567.3670945 285.37940244 567.53548112 272.77783203 567.81054688 C261.78991646 568.05027496 250.80461748 568.20470838 239.81415951 568.25812387 C233.99659765 568.28934182 228.18651824 568.36227689 222.37136459 568.53752136 C185.88281907 569.595672 185.88281907 569.595672 178.70983124 563.64562988 C173.69980938 558.05182987 171.01843732 551.93075763 168.88661671 544.79384041 C167.69826157 541.04918439 165.94759304 538.1178949 163.84375 534.8125 C162.72867104 532.8752852 161.61407415 530.93779283 160.5 529 C156.28120353 521.67316764 152.04745103 514.35573384 147.77832031 507.05810547 C144.84464244 502.04313592 141.91996003 497.02296784 139 492 C138.48225006 491.10945923 138.48225006 491.10945923 137.95404053 490.20092773 C135.73829458 486.38746594 133.52995057 482.56984028 131.32955933 478.74749756 C130.61738028 477.51222174 129.90332837 476.27802355 129.18728638 475.04498291 C128.18733521 473.32207634 127.19508771 471.59470577 126.203125 469.8671875 C125.63239258 468.87831543 125.06166016 467.88944336 124.47363281 466.87060547 C122.98265213 463.96620672 121.99855224 461.1022249 121 458 C129.59695997 457.69794095 138.19168404 457.46741033 146.79264832 457.32644176 C150.78734482 457.25875638 154.77839766 457.16710042 158.77099609 457.01928711 C162.62928538 456.87735065 166.48408841 456.80018307 170.3447876 456.76659584 C171.81242817 456.74268761 173.27989028 456.69598476 174.74603271 456.62550926 C179.39372237 456.411118 183.5407907 456.46284827 188 458 C191.72325763 461.9500796 193.73250505 466.06148058 196 471 C197.1781281 473.04484908 198.37425401 475.07956791 199.59765625 477.09765625 C200.75423094 479.08499166 201.90918974 481.07326837 203.0625 483.0625 C203.63548828 484.04798828 204.20847656 485.03347656 204.79882812 486.04882812 C205.37181641 487.03431641 205.94480469 488.01980469 206.53515625 489.03515625 C207.36406372 490.40895195 207.36406372 490.40895195 208.2097168 491.8105011 C210 495 210 495 211.27648926 498.16630554 C212.84203785 501.7064266 214.2899169 504.21895876 217 507 C222.62982873 508.69527178 228.04439381 508.40452584 233.87109375 508.171875 C235.52012437 508.14947057 237.16923532 508.1323998 238.81837463 508.12042236 C243.14260528 508.07477291 247.46193621 507.95708236 251.78424072 507.82397461 C256.20118916 507.70082719 260.61893618 507.64633093 265.03710938 507.5859375 C273.69364594 507.45754467 282.34621228 507.25298077 291 507 C289.73606108 504.45312931 288.4700619 501.9073176 287.20288086 499.36206055 C286.84851707 498.64747429 286.49415329 497.93288803 286.12905121 497.19664764 C283.17012141 491.25976401 279.95611038 485.51229374 276.5625 479.8125 C275.9739624 478.81331543 275.3854248 477.81413086 274.77905273 476.78466797 C273.51619566 474.64088947 272.25125632 472.4983364 270.984375 470.35693359 C267.85726288 465.06685097 264.74899816 459.76574462 261.64105225 454.46438599 C260.55827221 452.61778983 259.47470876 450.77165485 258.39111328 448.92553711 C253.07873372 439.86954592 247.83008661 430.77791154 242.59838867 421.67504883 C238.09007794 413.84771436 233.49689074 406.07307974 228.875 398.3125 C223.26686001 388.89510852 217.79972655 379.41079266 212.43652344 369.85205078 C209.24120692 364.16606178 205.96779756 358.54303471 202.58105469 352.96948242 C198.89948314 346.88699324 195.35837724 340.72481367 191.8125 334.5625 C186.87732462 325.98632779 181.92709309 317.419643 176.9375 308.875 C176.07656738 307.40051392 176.07656738 307.40051392 175.19824219 305.89624023 C173.46599521 302.93053409 171.73312211 299.9651948 170 297 C162.16424334 283.59382119 154.35962289 270.17079317 146.60791016 256.71582031 C140.68717951 246.44463308 134.7156847 236.20348192 128.73388672 225.96777344 C125.23414339 219.97750592 121.739912 213.98402049 118.24536133 207.99072266 C115.35742791 203.03848591 112.46690613 198.08780202 109.5703125 193.140625 C102.94944165 181.82468127 96.40196502 170.46961612 89.91366577 159.07733154 C84.97542878 150.41078839 79.95630099 141.79669854 74.86083984 133.22167969 C70.05502263 125.12378159 65.34985779 116.96954051 60.65380859 108.80761719 C56.48432939 101.56369512 52.28400174 94.33870794 48.0625 87.125 C41.32309981 75.59760519 34.694062 64.00826882 28.08303833 52.40701294 C25.28982233 47.50591121 22.48955891 42.60886459 19.6875 37.71281433 C16.69976961 32.49178844 13.71896843 27.26683295 10.73876953 22.04150391 C9.16465321 19.28801596 7.58206268 16.53963998 5.99609375 13.79296875 C5.16389022 12.34124458 4.33184259 10.88943102 3.5 9.4375 C3.13205322 8.80682617 2.76410645 8.17615234 2.38500977 7.52636719 C0.81549789 4.77179359 0 3.23258738 0 0 Z " fill="currentColor" transform="translate(396,117)"/>
<path d="M0 0 C4.82317434 0.00232085 9.64634515 0.00255917 14.46951989 0.00148655 C15.51528577 0.0012567 15.51528577 0.0012567 16.58217823 0.0010222 C18.00057092 0.00070233 19.41896362 0.00037811 20.83735631 0.00004961 C34.04112604 -0.00278006 47.24488874 0.00043918 60.44865732 0.00584998 C71.6277539 0.01029081 82.80684005 0.00955974 93.98593644 0.00493122 C107.11661318 -0.00050317 120.24728378 -0.00248006 133.37796149 0.00054348 C134.79762077 0.00086185 136.21728004 0.00117622 137.63693932 0.00148655 C138.68329876 0.00171796 138.68329876 0.00171796 139.75079678 0.00195405 C144.52097585 0.002795 149.29114962 0.00135749 154.06132821 -0.00099301 C156.68251411 -0.00198211 159.30370005 -0.00286689 161.92488602 -0.00364422 C163.85021016 -0.0042549 163.85021016 -0.0042549 165.81442973 -0.00487792 C175.83450008 -0.00384871 185.85386716 0.04932994 195.87370977 0.11313666 C203.08832538 0.14897029 210.29727021 0.11022293 217.5107591 -0.00072995 C223.65058777 -0.09361294 229.78941685 -0.12469316 235.92990342 -0.13816547 C238.5102894 -0.15582655 241.09063545 -0.19606314 243.67027393 -0.26063108 C264.49185054 -0.76698959 264.49185054 -0.76698959 270.24797371 3.82493473 C276.44013582 10.04322942 279.32003671 17.79063198 281.79770401 26.08256794 C283.82171525 32.26095333 287.32699103 37.61941994 290.73581437 43.11311603 C292.39141373 45.80219301 293.96916618 48.53413085 295.54233292 51.27202106 C296.32265885 52.61333088 296.32265885 52.61333088 297.11874894 53.98173786 C298.22592667 56.13530231 298.22592667 56.13530231 298.22592667 58.13530231 C294.15970139 59.10689247 290.36737637 59.25962197 286.19194821 59.25835014 C285.4922574 59.25950399 284.7925666 59.26065783 284.07167304 59.26184664 C281.72159303 59.26449847 279.3715812 59.26000293 277.02150467 59.25555683 C275.32189628 59.25599282 273.62228796 59.25686825 271.92267999 59.258146 C267.24792134 59.2603854 262.57318553 59.25637721 257.89842978 59.25136793 C252.85893412 59.2470557 247.81943978 59.24851041 242.77994278 59.24927021 C234.04720944 59.24979495 225.31448356 59.24665332 216.5817521 59.24103237 C203.95563572 59.23291067 191.32952296 59.23030146 178.70340426 59.22904438 C158.21912908 59.22685492 137.73485789 59.22019768 117.25058487 59.21074177 C97.35019445 59.20156492 77.44980511 59.19448542 57.549413 59.19023395 C55.70990065 59.18983987 55.70990065 59.18983987 53.83322644 59.18943782 C47.68112633 59.1881328 41.52902622 59.18686909 35.3769261 59.18562592 C-15.67340979 59.17525659 -66.72374137 59.15764114 -117.77407333 59.13530231 C-117.10434661 55.49606547 -116.23619038 52.78601788 -114.39516708 49.56498981 C-113.89348007 48.6810152 -113.39179306 47.79704059 -112.87490341 46.88627888 C-112.05155502 45.46267048 -112.05155502 45.46267048 -111.21157333 44.01030231 C-110.64527206 43.01998005 -110.07897079 42.02965778 -109.49550888 41.00932575 C-91.72056371 10.05503789 -91.72056371 10.05503789 -85.77407333 1.13530231 C-83.34478923 0.70503689 -83.34478923 0.70503689 -80.1768901 0.62825275 C-78.33777478 0.57598435 -78.33777478 0.57598435 -76.46150562 0.52266002 C-75.06367275 0.49970644 -73.66582651 0.47755647 -72.26796981 0.45610309 C-70.76344669 0.42319399 -69.25893513 0.38975288 -67.75443431 0.3558395 C-45.17520993 -0.10590766 -22.58263677 -0.01111863 0 0 Z " fill="currentColor" transform="translate(309.77407332882285,496.86469768732786)"/>
</svg>
